<svg width="54" height="54" viewBox="0 0 54 54" fill="none" xmlns="http://www.w3.org/2000/svg">
<g clip-path="url(#clip0)">
<path d="M48.6354 23.0795C48.3398 22.7272 47.9034 22.5237 47.4436 22.5237H37.3345V10.7482C37.3345 5.29605 32.8988 0.860359 27.4468 0.860359C21.9947 0.860359 17.559 5.29605 17.559 10.7482V22.5236H7.45002C6.99003 22.5236 6.55369 22.7271 6.2582 23.0794C5.9625 23.4316 5.83804 23.8968 5.918 24.3496L10.9172 52.6783C11.0484 53.4218 11.6944 53.9638 12.4492 53.9638H42.4444C43.1992 53.9638 43.8453 53.4218 43.9764 52.6783L48.9756 24.3496C49.0555 23.8968 48.9311 23.4317 48.6354 23.0795ZM20.6705 10.7482C20.6705 7.01175 23.7104 3.97189 27.4468 3.97189C31.1831 3.97189 34.223 7.01175 34.223 10.7482V22.5236H20.6705V10.7482ZM41.1391 50.8523H13.7545L9.30438 25.6351H17.559V29.0784C17.559 29.9376 18.2555 30.6342 19.1147 30.6342C19.9739 30.6342 20.6705 29.9376 20.6705 29.0784V25.6351H34.223V29.0784C34.223 29.9376 34.9195 30.6342 35.7787 30.6342C36.6379 30.6342 37.3345 29.9376 37.3345 29.0784V25.6351H45.5892L41.1391 50.8523Z" fill="black"/>
</g>
<defs>
<clipPath id="clip0">
<rect x="0.89502" y="0.860359" width="53.1034" height="53.1034" fill="white"/>
</clipPath>
</defs>
</svg>
