<?xml version="1.0" encoding="iso-8859-1"?>
<!-- Generator: Adobe Illustrator 19.0.0, SVG Export Plug-In . SVG Version: 6.00 Build 0)  -->
<svg version="1.1" id="Layer_1" xmlns="http://www.w3.org/2000/svg" xmlns:xlink="http://www.w3.org/1999/xlink" x="0px" y="0px"
	 viewBox="0 0 511.999 511.999" style="enable-background:new 0 0 511.999 511.999;" xml:space="preserve">
<g>
	<g>
		<path d="M469.009,188.511c4.911-10.043,7.465-21.069,7.465-32.488c0-40.907-33.281-74.188-74.188-74.188
			c-13.418,0-26.284,3.521-37.653,10.248c-14.798-10.828-32.681-16.714-51.163-16.714c-1.834,0-3.649,0.076-5.454,0.189
			c-5.707-17.733-16.505-33.672-31.059-45.569c-17.281-14.126-39.108-21.905-61.465-21.905c-38.153,0-72.624,22.439-88.329,56.653
			c-3.562-0.393-7.15-0.59-10.733-0.59c-53.582,0-97.176,43.593-97.176,97.175c0,11.646,2.028,22.966,6.039,33.749
			C9.132,211.278,0,233.18,0,256.274c0,47.822,38.905,86.727,86.727,86.727c27.097,0,52.058-12.357,68.429-33.457l29.269,38.542
			v145.38c0,5.771,4.678,10.449,10.449,10.449h113.371c5.771,0,10.449-4.678,10.449-10.449V355.979
			c13.984,9.907,30.213,15.24,47.003,15.24c28.416,0,54.185-16.327,66.552-41.397c1.858,0.141,3.715,0.212,5.563,0.212
			c40.907,0,74.188-33.281,74.188-74.188C512,226.492,494.873,200.453,469.009,188.511z M437.812,309.138
			c-3.349,0-6.748-0.326-10.101-0.97c-5.068-0.971-10.08,1.896-11.81,6.753c-7.547,21.174-27.722,35.4-50.203,35.4
			c-15.084,0-29.663-5.914-41.508-16.717c6.737-4.16,15.904-9.83,25.018-15.503c10.319-6.423,18.549-11.589,24.459-15.355
			c3.552-2.263,6.313-4.051,8.211-5.315c3.786-2.523,7.699-5.133,7.699-10.912c0-5.771-4.678-10.449-10.449-10.449
			c-2.76,0-5.268,1.069-7.136,2.816c-5.522,3.978-45.011,28.482-69.221,43.372c-3.091,1.902-4.975,5.27-4.975,8.9v151.858h-92.473
			V344.567c0-2.282-0.747-4.503-2.127-6.32l-52.767-69.485c-3.49-4.594-10.046-5.492-14.641-2.002
			c-4.595,3.49-5.492,10.045-2.002,14.641l8.14,10.719c-12.22,18.798-32.744,29.981-55.198,29.981
			c-36.298,0-65.829-29.531-65.829-65.829c0-19.507,8.59-37.899,23.569-50.459c3.621-3.036,4.753-8.124,2.763-12.409
			c-4.696-10.107-7.077-20.902-7.077-32.085c0-42.059,34.218-76.278,76.278-76.278c5.113,0,10.235,0.512,15.225,1.522
			c5.101,1.031,10.187-1.847,11.923-6.755c10.759-30.403,39.659-50.83,71.913-50.83c32.304,0,61.04,20.696,71.783,50.439
			c-35.056,11.134-60.532,43.982-60.532,82.676c0,5.771,4.678,10.449,10.449,10.449c5.771,0,10.449-4.678,10.449-10.449
			c0-36.298,29.531-65.829,65.829-65.829c16.098,0,31.6,5.886,43.649,16.573c3.716,3.295,9.236,3.52,13.208,0.538
			c9.276-6.965,20.327-10.645,31.959-10.645c29.385,0,53.29,23.905,53.29,53.29c0,11.553-3.636,22.545-10.515,31.784
			c-2.085,2.8-2.633,6.455-1.463,9.744c1.17,3.288,3.906,5.775,7.29,6.629c23.677,5.97,40.215,27.216,40.215,51.669
			C491.102,285.233,467.197,309.138,437.812,309.138z"/>
	</g>
</g>
<g>
	<g>
		<path d="M380.193,235.073c-3.17-4.823-9.648-6.165-14.471-2.996l-120.508,79.168l-47.794-69.264
			c-3.278-4.75-9.785-5.942-14.534-2.666c-4.75,3.278-5.943,9.785-2.666,14.535l53.595,77.67c2.024,2.934,5.287,4.516,8.609,4.516
			c1.971,0,3.962-0.557,5.728-1.717l129.045-84.776C382.021,246.375,383.362,239.897,380.193,235.073z"/>
	</g>
</g>
<g>
	<g>
		<path d="M69.301,148.257c-5.667-1.007-11.091,2.778-12.123,8.442c-0.004,0.025-0.02,0.111-0.024,0.135
			c-0.993,5.671,2.793,11.045,8.459,12.057c0.619,0.111,1.232,0.164,1.839,0.164c4.957,0,9.364-3.561,10.284-8.606
			c0.004-0.025,0.02-0.11,0.024-0.135C78.753,154.643,74.967,149.269,69.301,148.257z"/>
	</g>
</g>
<g>
	<g>
		<path d="M402.137,210.874c-5.184-2.516-11.435-0.344-13.961,4.838l-0.027,0.054c-2.557,5.173-0.437,11.44,4.737,13.997
			c1.489,0.737,3.068,1.085,4.623,1.085c3.849,0,7.554-2.137,9.374-5.82l0.109-0.222
			C409.499,219.616,407.323,213.39,402.137,210.874z"/>
	</g>
</g>
<g>
	<g>
		<path d="M130.15,106.182c-22.532-4.081-45.508,4.427-59.963,22.211c-3.64,4.477-2.96,11.059,1.518,14.699
			c1.937,1.575,4.267,2.341,6.584,2.341c3.038,0,6.049-1.319,8.116-3.859c9.649-11.871,24.978-17.556,40.019-14.828
			c5.675,1.029,11.116-2.74,12.145-8.419S135.828,107.211,130.15,106.182z"/>
	</g>
</g>
<g>
</g>
<g>
</g>
<g>
</g>
<g>
</g>
<g>
</g>
<g>
</g>
<g>
</g>
<g>
</g>
<g>
</g>
<g>
</g>
<g>
</g>
<g>
</g>
<g>
</g>
<g>
</g>
<g>
</g>
</svg>
