<svg width="50" height="50" viewBox="0 0 50 50" fill="none" xmlns="http://www.w3.org/2000/svg">
<g clip-path="url(#clip0)">
<path d="M48.6845 23.6833C44.2399 18.2762 34.8299 11.9662 24.5599 11.9662C14.253 11.9662 4.84264 18.3191 0.435235 23.6833C0.00010401 24.2128 0.00010401 24.9755 0.435235 25.5051C4.98522 31.043 14.4172 37.2223 24.5599 37.2223C35.0629 37.2223 44.4328 30.6775 48.6845 25.5052C49.1196 24.9755 49.1196 24.2128 48.6845 23.6833ZM34.33 24.5942C34.33 29.9735 29.9471 34.35 24.5598 34.35C19.1723 34.35 14.7896 29.9732 14.7896 24.5942C14.7896 19.2149 19.1724 14.8384 24.5598 14.8384C29.9476 14.8385 34.33 19.2155 34.33 24.5942ZM3.49007 24.5946C5.10891 22.9146 9.01224 19.2888 14.4916 16.9617C11.053 21.4734 11.0516 27.7112 14.49 32.2245C10.3239 30.4614 6.45371 27.6758 3.49007 24.5946ZM34.6281 32.2266C38.0668 27.7149 38.068 21.4771 34.6297 16.9638C38.7957 18.727 42.6659 21.5127 45.6297 24.5937C44.0108 26.2739 40.1075 29.8995 34.6281 32.2266Z" fill="#F9F5F2"/>
<path d="M19.6697 24.5943C19.6697 27.2868 21.8634 29.4772 24.5599 29.4772C27.2563 29.4772 29.45 27.2868 29.45 24.5943C29.45 21.9017 27.2563 19.7113 24.5599 19.7113C21.8634 19.7113 19.6697 21.9017 19.6697 24.5943ZM26.5735 24.5943C26.5735 25.703 25.6701 26.6049 24.5599 26.6049C23.4495 26.6049 22.5463 25.703 22.5463 24.5943C22.5463 23.4855 23.4495 22.5836 24.5599 22.5836C25.6701 22.5836 26.5735 23.4855 26.5735 24.5943Z" fill="#F9F5F2"/>
<path d="M24.5599 6.40283C25.3542 6.40283 25.9982 5.75981 25.9982 4.96666V1.61561C25.9982 0.822462 25.3542 0.179443 24.5599 0.179443C23.7656 0.179443 23.1216 0.822462 23.1216 1.61561V4.96666C23.1216 5.75981 23.7656 6.40283 24.5599 6.40283Z" fill="#F9F5F2"/>
<path d="M33.1417 8.32363C33.8313 8.71637 34.7099 8.47691 35.1036 7.78755L37.0177 4.4365C37.4112 3.74752 37.171 2.8705 36.4809 2.47747C35.7907 2.08454 34.9126 2.32438 34.519 3.01355L32.6049 6.3646C32.2114 7.05348 32.4517 7.93059 33.1417 8.32363Z" fill="#F9F5F2"/>
<path d="M14.0161 7.78753C14.4096 8.47651 15.2879 8.71644 15.978 8.32351C16.668 7.93057 16.9083 7.05346 16.5148 6.36448L14.6007 3.01343C14.2072 2.32446 13.3287 2.08452 12.6388 2.47746C11.9488 2.87039 11.7085 3.74751 12.102 4.43648L14.0161 7.78753Z" fill="#F9F5F2"/>
<path d="M24.5599 42.7856C23.7656 42.7856 23.1216 43.4287 23.1216 44.2218V47.5729C23.1216 48.366 23.7656 49.009 24.5599 49.009C25.3542 49.009 25.9982 48.366 25.9982 47.5729V44.2218C25.9982 43.4287 25.3542 42.7856 24.5599 42.7856Z" fill="#F9F5F2"/>
<path d="M15.978 40.865C15.288 40.4721 14.4097 40.712 14.0161 41.401L12.102 44.752C11.7085 45.441 11.9488 46.3181 12.6388 46.711C13.3289 47.104 14.2072 46.8639 14.6007 46.1751L16.5148 42.824C16.9084 42.135 16.668 41.2579 15.978 40.865Z" fill="#F9F5F2"/>
<path d="M35.1036 41.4009C34.7101 40.7118 33.8315 40.4721 33.1417 40.8648C32.4517 41.2578 32.2114 42.1349 32.6049 42.8238L34.519 46.1749C34.9124 46.8639 35.7907 47.1039 36.4809 46.711C37.1709 46.318 37.4112 45.4409 37.0177 44.752L35.1036 41.4009Z" fill="#F9F5F2"/>
</g>
<defs>
<clipPath id="clip0">
<path d="M0.108887 13.1794C0.108887 5.99975 5.92918 0.179443 13.1089 0.179443H49.0108V49.0091H0.108887V13.1794Z" fill="white"/>
</clipPath>
</defs>
</svg>
