<svg width="26" height="26" viewBox="0 0 26 26" fill="none" xmlns="http://www.w3.org/2000/svg">
<g clip-path="url(#clip0)">
<path d="M4.11371 9.12858L4.11371 16.7652C4.11371 17.0134 4.31545 17.2152 4.56364 17.2152L15.5693 17.2152L15.5687 21.8563C15.5687 22.0384 15.6781 22.2013 15.8468 22.2719C16.0148 22.3419 16.2089 22.3031 16.3375 22.1745L25.2469 13.2651C25.4226 13.0894 25.4226 12.8043 25.2469 12.6287L16.3375 3.71923C16.2089 3.59069 16.0148 3.55188 15.8468 3.62186C15.6782 3.69122 15.5687 3.85541 15.5687 4.03743L15.5694 8.67861L4.56493 8.67862C4.31545 8.67864 4.11434 8.87976 4.11371 9.12858Z" fill="black"/>
</g>
<defs>
<clipPath id="clip0">
<rect x="12.8379" y="25.6755" width="18" height="18" transform="rotate(-135 12.8379 25.6755)" fill="white"/>
</clipPath>
</defs>
</svg>
