<svg width="224" height="78" viewBox="0 0 224 78" fill="none" xmlns="http://www.w3.org/2000/svg">
<path fill-rule="evenodd" clip-rule="evenodd" d="M35.8861 31.6076C35.0608 25.9118 34.2817 22.3285 33.5488 20.8578C32.8142 19.3893 31.4852 18.7461 29.5618 18.9283C28.2772 19.1135 27.4065 19.5271 26.9496 20.1693C26.4899 20.8131 26.0773 22.5588 25.7117 25.4062C24.7944 31.1947 23.8778 35.4212 22.9621 38.0856C21.9525 40.7519 20.3545 43.1547 18.2876 45.1144C15.4456 47.8707 13.7041 49.111 13.0632 48.8354C12.1459 48.4693 11.4585 44.7941 11.0009 37.8099C10.4508 30.9191 9.76337 26.1874 8.93873 23.6146C8.20401 21.0434 7.01249 19.849 5.36416 20.0313C4.17193 20.2166 3.43871 21.0435 3.16448 22.5121C2.98041 23.9826 2.88892 28.4386 2.89002 35.88C2.89002 42.5878 3.02757 46.998 3.30266 49.1106C3.57774 51.3157 4.21933 53.1073 5.22741 54.4855C7.0598 56.8758 9.44285 58.0703 12.3765 58.0688C13.0726 58.0622 13.7653 57.9696 14.4388 57.7932C18.3786 57.1514 22.0448 54.9004 25.4374 51.04C27.2699 48.835 28.5073 47.3649 29.1495 46.6298C29.8821 48.3763 30.432 49.6626 30.7992 50.4888C32.1741 53.7963 34.3739 55.8636 37.3985 56.6906C40.4232 57.5177 43.5852 56.9205 46.8848 54.899C51.2843 52.2352 54.1256 46.0334 55.4086 36.2935C55.7536 33.8274 55.9374 31.3414 55.9586 28.8513C55.9586 26.6462 55.7753 24.7168 55.4086 23.0629C54.6739 19.5722 53.4365 17.8265 51.6966 17.8258C50.9618 17.8258 50.2286 18.1016 49.4968 18.6531C48.4872 19.2965 47.5249 23.6147 46.6098 31.6076C45.9675 37.7643 45.3259 41.6691 44.685 43.3223C44.1348 45.0687 42.7142 46.6306 40.423 48.0081C39.1384 48.0081 37.6261 42.5412 35.8861 31.6076ZM97.3412 28.7135C96.2413 21.8225 95.1873 18.0555 94.1791 17.4124C93.2617 16.7707 92.1619 16.4491 90.8795 16.4476C89.6872 16.4476 88.8623 16.7234 88.4047 17.2749C87.9451 17.5506 87.716 20.2151 87.7173 25.2683C87.7173 30.2298 86.8008 34.64 84.9676 38.4989C82.5833 43.6456 80.3377 45.8507 78.231 45.1143C76.2138 44.287 74.5182 40.6118 73.1441 34.0887C72.8699 32.6315 72.6862 31.1586 72.5941 29.6785C72.4093 28.2099 72.2718 27.1533 72.1815 26.5088C72.1706 25.7106 72.0312 24.9195 71.7689 24.1658C71.3219 23.3169 70.7674 22.5293 70.1192 21.8229C69.3844 21.1813 68.7428 20.9516 68.1943 21.1339C67.7347 21.2264 67.0014 21.9154 65.9946 23.2011C65.0773 24.3963 64.5274 25.5448 64.3448 26.6466C64.2525 27.0148 64.2067 27.5661 64.2073 28.3004C64.2256 29.5909 64.3174 30.8793 64.4823 32.1593C65.4898 40.889 67.5062 46.953 70.5315 50.3512C75.0212 55.2223 80.1081 55.7277 85.7922 51.8673C87.8073 50.5817 89.2738 49.617 90.1917 48.9731C89.732 53.659 88.8613 57.3341 87.5795 59.9986C86.2949 62.572 84.0952 64.2718 80.9803 65.0979C77.7709 65.8344 75.2504 65.8344 73.4187 65.0979C71.5842 64.2706 70.301 64.0868 69.5692 64.5465C68.8345 65.0075 68.4678 66.2019 68.4693 68.1298C68.4693 71.2545 69.8441 73.3217 72.5938 74.3316C73.6937 74.6978 75.0228 74.8815 76.5808 74.883C78.5957 74.883 80.9788 74.5155 83.73 73.7804C89.2293 72.2191 93.1705 69.4627 95.5535 65.5113C97.8435 61.5619 98.9892 55.5898 98.9906 47.5949C98.9906 41.8992 98.4407 35.6055 97.3408 28.7138L97.3412 28.7135ZM144.085 56.8289V55.3124C144.085 52.556 143.673 48.1458 142.848 42.0818C141.931 35.1005 140.831 30.0472 139.548 26.9218C138.357 23.7994 136.524 21.227 134.05 19.2045C131.94 17.4602 129.556 16.5873 126.901 16.586C124.516 16.586 121.903 17.2291 119.063 18.5154C110.63 22.2839 106.414 30.5529 106.415 43.3223C106.415 44.5173 106.461 45.7577 106.553 47.0433C106.735 52.2804 107.285 55.9097 108.202 57.931C109.118 60.0455 110.492 60.7806 112.327 60.136C113.517 59.6773 114.113 56.3697 114.114 50.2131C114.114 38.8215 116.085 31.4713 120.026 28.1623C124.516 24.3033 128.044 24.3033 130.612 28.1623C131.344 28.8061 132.444 33.9513 133.912 43.5979C135.469 53.1548 136.477 58.3 136.936 59.0335C137.669 59.9531 138.953 60.4125 140.786 60.4117C142.71 60.4117 143.81 59.2173 144.085 56.8284V56.8289ZM194.479 22.6494C194.294 25.3154 194.202 27.8421 194.204 30.2295C194.204 35.8349 194.754 40.7963 195.854 45.1139C197.411 51.363 199.611 55.7272 202.454 58.2066C204.56 60.136 207.08 61.1007 210.014 61.1007C210.983 61.0965 211.949 61.0042 212.901 60.8251C215.009 60.3665 216.934 59.2639 218.676 57.5174C220.416 55.8638 221.149 54.3018 220.876 52.8316C220.784 52.1899 220.554 51.7291 220.188 51.4535C219.914 51.1778 219.316 51.0399 218.401 51.0399C217.576 50.9495 216.338 50.9495 214.689 51.0399C212.03 51.2251 210.289 51.1792 209.465 50.9021C208.73 50.6263 207.997 49.7535 207.265 48.2835C205.615 44.5175 204.516 40.3829 203.965 35.8799C207.173 35.5138 209.602 35.2841 211.252 35.1908C215.284 34.7321 218.08 33.997 219.639 32.9857C220.646 32.344 221.15 31.609 221.15 30.7807C221.15 30.2292 220.921 29.6779 220.463 29.1269C220.371 28.5753 219.867 28.1617 218.951 27.8859C218.126 27.52 216.981 27.2903 215.514 27.1969C214.047 27.0139 212.627 26.876 211.252 26.7833C209.785 26.6929 208.227 26.647 206.577 26.6455C204.928 26.5551 203.737 26.4633 203.003 26.3699C204.652 12.9563 203.965 6.24909 200.941 6.24838C200.39 6.24838 199.703 6.56996 198.879 7.2131C196.679 8.77649 195.212 13.9217 194.479 22.6487V22.6494ZM155.215 52.9313C157.138 56.8386 160.115 59.3173 164.146 60.3675C165.442 60.7329 166.782 60.9223 168.128 60.9307C170.967 60.9307 173.761 60.2142 176.51 58.7813C180.63 56.5174 183.698 53.2348 185.715 48.9334C186.812 46.6713 187.362 43.201 187.363 38.5223C187.363 37.3146 187.324 36.0318 187.245 34.674C186.972 28.0356 186.059 24.0371 184.509 22.6785C183.23 21.4709 182.042 20.8671 180.947 20.867C180.217 20.867 179.487 21.1428 178.757 21.6943C178.009 22.3738 177.773 26.4856 178.049 34.0295C178.232 38.9341 178.232 42.2161 178.049 43.8756C177.865 45.6114 177.27 47.1206 176.263 48.4034C174.706 50.4403 173.012 51.9114 171.181 52.8168C169.989 53.4205 168.89 53.7221 167.883 53.7216C163.76 53.7216 161.333 47.4697 160.601 34.9661C160.404 32.4807 160.208 30.4469 160.011 28.865C159.739 27.2843 159.376 26.0416 158.921 25.1367C158.557 24.2319 158.102 23.6292 157.557 23.3285C156.919 23.1032 156.192 23.1032 155.376 23.3285C154.283 23.7053 153.51 24.7597 153.056 26.4918C152.662 28.2995 152.465 31.4258 152.466 35.8705C152.466 43.3271 153.383 49.014 155.215 52.9313Z" fill="#161616"/>
<path fill-rule="evenodd" clip-rule="evenodd" d="M185.158 14.7549C185.632 14.116 185.889 13.342 185.893 12.5461C185.893 11.8592 185.648 11.1717 185.158 10.4834C184.277 9.10962 183.199 8.32403 181.926 8.12666C181.69 8.04049 181.442 7.99123 181.191 7.98059C180.21 8.07931 179.378 8.57016 178.694 9.45314C177.812 10.4361 177.371 11.5165 177.371 12.6943C177.371 13.1888 177.421 13.6821 177.519 14.1667C178.106 15.9353 179.232 16.819 180.898 16.8176C182.857 16.8176 184.277 16.1301 185.158 14.755V14.7549Z" fill="#6AC0A2"/>
<path fill-rule="evenodd" clip-rule="evenodd" d="M159.574 11.4545C159.163 10.837 158.186 10.4757 156.643 10.3707H155.409C153.969 10.3707 153.044 10.8868 152.632 11.9189C152.117 12.951 151.86 13.8787 151.861 14.7021C151.842 15.3515 152.003 15.9937 152.325 16.5575C153.044 17.7367 154.381 18.3259 156.336 18.3253C158.084 18.3253 159.163 18.1484 159.574 17.7946C159.986 17.2808 160.192 16.1983 160.193 14.5472C160.193 13.0012 159.987 11.9705 159.574 11.4553V11.4545Z" fill="#6AC0A2"/>
</svg>
