<svg width="472" height="459" viewBox="0 0 472 459" fill="none" xmlns="http://www.w3.org/2000/svg">
<rect x="106" width="366" height="459" rx="50" fill="#CA6077"/>
<path d="M39.5884 244.627C76.0175 244.627 101.839 241.263 105.728 331.124C106.363 345.801 116.876 358.417 131.373 360.799L279.997 385.219C300.44 388.578 318.054 370.697 314.388 350.307L271.378 111.084C269.724 101.883 263.875 93.9794 255.56 89.7077L149.945 35.4531C129.981 25.1973 106.237 39.6935 106.237 62.1381V80C106.237 142.133 79.1768 168.813 39.5884 168.813C2.77015e-05 168.813 0 207.803 0 207.803C0 207.803 5.24628e-05 244.627 39.5884 244.627Z" fill="#CA6077"/>
</svg>
