<svg width="471" height="520" viewBox="0 0 471 520" fill="none" xmlns="http://www.w3.org/2000/svg">
<rect x="105" width="366" height="520" rx="50" fill="#CA6077"/>
<path d="M39.5884 295.627C76.0175 295.627 101.839 292.263 105.728 382.124C106.363 396.801 116.876 409.417 131.373 411.799L279.997 436.219C300.44 439.578 318.054 421.697 314.388 401.307L271.378 162.084C269.724 152.883 263.875 144.979 255.56 140.708L149.945 86.4531C129.981 76.1973 106.237 90.6935 106.237 113.138V131C106.237 193.133 79.1768 219.813 39.5884 219.813C2.77015e-05 219.813 0 258.803 0 258.803C0 258.803 5.24628e-05 295.627 39.5884 295.627Z" fill="#CA6077"/>
</svg>
