<svg width="39" height="39" viewBox="0 0 39 39" fill="none" xmlns="http://www.w3.org/2000/svg">
<g clip-path="url(#clip0)">
<path d="M38.5214 36.4871L27.3024 25.2681C29.4303 22.641 30.7112 19.3013 30.7112 15.665C30.7112 7.23559 23.8532 0.377609 15.4238 0.377609C6.99438 0.377609 0.136475 7.23559 0.136475 15.665C0.136475 24.0945 6.99445 30.9524 15.4239 30.9524C19.0601 30.9524 22.3999 29.6715 25.027 27.5436L36.246 38.7626C36.5603 39.0768 37.0696 39.0768 37.3839 38.7626L38.5215 37.625C38.8357 37.3107 38.8357 36.8013 38.5214 36.4871ZM15.4239 27.734C8.76867 27.734 3.3549 22.3202 3.3549 15.665C3.3549 9.0098 8.76867 3.59603 15.4239 3.59603C22.0791 3.59603 27.4929 9.0098 27.4929 15.665C27.4929 22.3202 22.0791 27.734 15.4239 27.734Z" fill="black"/>
</g>
<defs>
<clipPath id="clip0">
<rect x="0.136475" y="0.377609" width="38.6207" height="38.6207" fill="white"/>
</clipPath>
</defs>
</svg>
