<svg width="49" height="50" viewBox="0 0 49 50" fill="none" xmlns="http://www.w3.org/2000/svg">
<g clip-path="url(#clip0)">
<path d="M41.5149 32.0336C38.8859 29.4046 35.7566 27.4584 32.3424 26.2803C35.9991 23.7617 38.4015 19.5468 38.4015 14.7806C38.4015 7.08601 32.1414 0.825897 24.4468 0.825897C16.7521 0.825897 10.492 7.08601 10.492 14.7806C10.492 19.5468 12.8944 23.7617 16.5512 26.2803C13.137 27.4584 10.0078 29.4046 7.37871 32.0336C2.81965 36.5928 0.308838 42.6543 0.308838 49.1018H4.08039C4.08039 37.8717 13.2167 28.7354 24.4468 28.7354C35.6768 28.7354 44.8132 37.8717 44.8132 49.1018H48.5847C48.5847 42.6543 46.0739 36.5928 41.5149 32.0336ZM24.4468 24.9638C18.8318 24.9638 14.2636 20.3957 14.2636 14.7806C14.2636 9.16555 18.8318 4.59745 24.4468 4.59745C30.0618 4.59745 34.63 9.16555 34.63 14.7806C34.63 20.3957 30.0618 24.9638 24.4468 24.9638Z" fill="black"/>
</g>
<defs>
<clipPath id="clip0">
<rect x="0.308838" y="0.825897" width="48.2759" height="48.2759" fill="white"/>
</clipPath>
</defs>
</svg>
